<svg width="266" height="41" viewBox="0 0 266 41" fill="none" xmlns="http://www.w3.org/2000/svg">
<path d="M0.875 32V2.90909H13.4318C15.5909 2.90909 17.4801 3.30208 19.0994 4.08807C20.7188 4.87405 21.9782 6.00568 22.8778 7.48295C23.7775 8.96023 24.2273 10.7311 24.2273 12.7955C24.2273 14.8788 23.7633 16.6354 22.8352 18.0653C21.9167 19.4953 20.6241 20.5748 18.9574 21.304C17.3002 22.0331 15.3636 22.3977 13.1477 22.3977H5.64773V16.2614H11.5568C12.4848 16.2614 13.2756 16.1477 13.929 15.9205C14.5919 15.6837 15.0985 15.3097 15.4489 14.7983C15.8087 14.2869 15.9886 13.6193 15.9886 12.7955C15.9886 11.9621 15.8087 11.285 15.4489 10.7642C15.0985 10.2339 14.5919 9.84564 13.929 9.59943C13.2756 9.34375 12.4848 9.21591 11.5568 9.21591H8.77273V32H0.875ZM17.9205 18.6477L25.1932 32H16.6136L9.51136 18.6477H17.9205ZM39.0551 22.4545V10.1818H46.896V32H39.4528V27.8523H39.2256C38.7521 29.2443 37.9235 30.3333 36.7398 31.1193C35.5561 31.8958 34.1498 32.2841 32.521 32.2841C30.9964 32.2841 29.6612 31.9337 28.5153 31.233C27.379 30.5322 26.4936 29.5663 25.8591 28.3352C25.2341 27.1042 24.9169 25.6932 24.9074 24.1023V10.1818H32.7483V22.4545C32.7578 23.5341 33.0324 24.3816 33.5722 24.9972C34.1214 25.6127 34.8884 25.9205 35.8733 25.9205C36.5267 25.9205 37.0902 25.7831 37.5636 25.5085C38.0466 25.2244 38.4159 24.8267 38.6716 24.3153C38.9367 23.7945 39.0646 23.1742 39.0551 22.4545ZM47.9703 32V2.90909H55.8112V13.9886H55.9249C56.209 13.25 56.6256 12.5729 57.1749 11.9574C57.7241 11.3324 58.4059 10.8352 59.2203 10.4659C60.0347 10.0871 60.9817 9.89773 62.0612 9.89773C63.5006 9.89773 64.869 10.2812 66.1663 11.0483C67.4732 11.8153 68.5338 13.0227 69.3482 14.6705C70.172 16.3182 70.584 18.4583 70.584 21.0909C70.584 23.6098 70.191 25.6979 69.405 27.3551C68.6285 29.0123 67.5868 30.2481 66.28 31.0625C64.9826 31.8769 63.5574 32.2841 62.0044 32.2841C60.9817 32.2841 60.0679 32.1184 59.2629 31.7869C58.4675 31.446 57.7857 30.9867 57.2175 30.4091C56.6588 29.822 56.2279 29.1591 55.9249 28.4205H55.7544V32H47.9703ZM55.6408 21.0909C55.6408 22.1515 55.7781 23.0701 56.0527 23.8466C56.3368 24.6136 56.7345 25.2102 57.2459 25.6364C57.7667 26.053 58.387 26.2614 59.1067 26.2614C59.8264 26.2614 60.4372 26.0578 60.9391 25.6506C61.4504 25.2339 61.8387 24.642 62.1038 23.875C62.3785 23.0985 62.5158 22.1705 62.5158 21.0909C62.5158 20.0114 62.3785 19.0881 62.1038 18.321C61.8387 17.5445 61.4504 16.9527 60.9391 16.5455C60.4372 16.1288 59.8264 15.9205 59.1067 15.9205C58.387 15.9205 57.7667 16.1288 57.2459 16.5455C56.7345 16.9527 56.3368 17.5445 56.0527 18.321C55.7781 19.0881 55.6408 20.0114 55.6408 21.0909ZM75.1739 40.1818C74.2742 40.1818 73.4172 40.1108 72.6028 39.9688C71.7884 39.8362 71.0735 39.6515 70.458 39.4148L72.1625 33.8466C72.8064 34.0739 73.3936 34.2206 73.9239 34.2869C74.4636 34.3532 74.9229 34.3153 75.3017 34.1733C75.69 34.0313 75.9693 33.7614 76.1398 33.3636L76.3102 32.9659L68.6398 10.1818H76.8216L80.3443 25.2955H80.5716L84.1511 10.1818H92.3898L84.4352 33.8182C84.0375 35.0208 83.4598 36.1004 82.7023 37.0568C81.9542 38.0227 80.9693 38.785 79.7477 39.3438C78.5261 39.9025 77.0015 40.1818 75.1739 40.1818ZM107.388 12C107.312 11.053 106.957 10.3144 106.323 9.78409C105.698 9.25379 104.746 8.98864 103.468 8.98864C102.653 8.98864 101.986 9.08807 101.465 9.28693C100.953 9.47633 100.575 9.73674 100.328 10.0682C100.082 10.3996 99.9544 10.7784 99.9449 11.2045C99.926 11.5549 99.9875 11.8722 100.13 12.1562C100.281 12.4309 100.518 12.6818 100.84 12.9091C101.162 13.1269 101.574 13.3258 102.076 13.5057C102.577 13.6856 103.174 13.8466 103.865 13.9886L106.252 14.5C107.862 14.8409 109.239 15.2907 110.385 15.8494C111.531 16.4081 112.469 17.0663 113.198 17.8239C113.927 18.572 114.462 19.4148 114.803 20.3523C115.153 21.2898 115.333 22.3125 115.343 23.4205C115.333 25.3333 114.855 26.9527 113.908 28.2784C112.961 29.6042 111.607 30.6127 109.845 31.304C108.094 31.9953 105.987 32.3409 103.524 32.3409C100.996 32.3409 98.7896 31.9669 96.9051 31.2188C95.0301 30.4706 93.5718 29.3201 92.5301 27.767C91.4979 26.2045 90.9771 24.2064 90.9676 21.7727H98.4676C98.515 22.6629 98.7375 23.411 99.1352 24.017C99.533 24.6231 100.092 25.0824 100.811 25.3949C101.541 25.7074 102.407 25.8636 103.411 25.8636C104.254 25.8636 104.959 25.7595 105.527 25.5511C106.095 25.3428 106.526 25.054 106.82 24.6847C107.113 24.3153 107.265 23.8939 107.274 23.4205C107.265 22.9754 107.118 22.5871 106.834 22.2557C106.559 21.9148 106.105 21.6117 105.47 21.3466C104.836 21.072 103.979 20.8163 102.899 20.5795L100.002 19.9545C97.426 19.3958 95.3947 18.4631 93.908 17.1562C92.4307 15.84 91.6968 14.0455 91.7063 11.7727C91.6968 9.92614 92.1892 8.31155 93.1835 6.92898C94.1873 5.53693 95.5746 4.45265 97.3455 3.67614C99.1258 2.89962 101.166 2.51136 103.468 2.51136C105.816 2.51136 107.847 2.90436 109.561 3.69034C111.275 4.47633 112.596 5.58428 113.524 7.0142C114.462 8.43466 114.935 10.0966 114.945 12H107.388ZM128.672 10.1818V15.8636H114.297V10.1818H128.672ZM117.081 4.95455H124.922V24.983C124.922 25.286 124.974 25.5417 125.078 25.75C125.182 25.9489 125.343 26.1004 125.561 26.2045C125.779 26.2992 126.058 26.3466 126.399 26.3466C126.636 26.3466 126.911 26.3182 127.223 26.2614C127.545 26.2045 127.782 26.1572 127.933 26.1193L129.07 31.6307C128.719 31.7348 128.217 31.8627 127.564 32.0142C126.92 32.1657 126.153 32.2652 125.263 32.3125C123.464 32.4072 121.953 32.2225 120.732 31.7585C119.51 31.285 118.591 30.5417 117.976 29.5284C117.36 28.5152 117.062 27.2462 117.081 25.7216V4.95455ZM135.151 32.3409C133.759 32.3409 132.528 32.1136 131.458 31.6591C130.397 31.1951 129.564 30.4943 128.958 29.5568C128.352 28.6193 128.049 27.4261 128.049 25.9773C128.049 24.7841 128.252 23.7661 128.66 22.9233C129.067 22.071 129.635 21.375 130.364 20.8352C131.093 20.2955 131.941 19.8835 132.907 19.5994C133.882 19.3153 134.933 19.1307 136.06 19.0455C137.282 18.9508 138.262 18.8371 139 18.7045C139.749 18.5625 140.288 18.3684 140.62 18.1222C140.951 17.8665 141.117 17.5303 141.117 17.1136V17.0568C141.117 16.4886 140.899 16.053 140.463 15.75C140.028 15.447 139.469 15.2955 138.787 15.2955C138.039 15.2955 137.428 15.4612 136.955 15.7926C136.491 16.1146 136.212 16.6117 136.117 17.2841H128.901C128.996 15.9583 129.417 14.7367 130.165 13.6193C130.923 12.4924 132.026 11.5928 133.475 10.9205C134.924 10.2386 136.732 9.89773 138.901 9.89773C140.463 9.89773 141.865 10.0824 143.106 10.4517C144.346 10.8116 145.402 11.3182 146.273 11.9716C147.144 12.6155 147.807 13.3731 148.262 14.2443C148.726 15.1061 148.958 16.0436 148.958 17.0568V32H141.628V28.9318H141.458C141.022 29.7462 140.492 30.4044 139.867 30.9062C139.251 31.4081 138.546 31.7727 137.75 32C136.964 32.2273 136.098 32.3409 135.151 32.3409ZM137.708 27.3977C138.304 27.3977 138.863 27.2746 139.384 27.0284C139.914 26.7822 140.345 26.4271 140.677 25.9631C141.008 25.4991 141.174 24.9356 141.174 24.2727V22.4545C140.965 22.5398 140.743 22.6203 140.506 22.696C140.279 22.7718 140.033 22.8428 139.767 22.9091C139.512 22.9754 139.237 23.0369 138.944 23.0938C138.66 23.1506 138.361 23.2027 138.049 23.25C137.443 23.3447 136.945 23.5009 136.557 23.7188C136.178 23.9271 135.894 24.1875 135.705 24.5C135.525 24.803 135.435 25.1439 135.435 25.5227C135.435 26.1288 135.648 26.5928 136.074 26.9148C136.5 27.2367 137.045 27.3977 137.708 27.3977ZM149.904 32V10.1818H157.745V32H149.904ZM153.825 7.90909C152.764 7.90909 151.855 7.55871 151.097 6.85795C150.34 6.1572 149.961 5.31439 149.961 4.32955C149.961 3.3447 150.34 2.50189 151.097 1.80114C151.855 1.10038 152.764 0.75 153.825 0.75C154.895 0.75 155.804 1.10038 156.552 1.80114C157.31 2.50189 157.688 3.3447 157.688 4.32955C157.688 5.31439 157.31 6.1572 156.552 6.85795C155.804 7.55871 154.895 7.90909 153.825 7.90909ZM158.94 32V10.1818H166.554V14.3295H166.781C167.179 12.7955 167.809 11.6733 168.67 10.9631C169.542 10.2528 170.56 9.89773 171.724 9.89773C172.065 9.89773 172.401 9.92614 172.733 9.98295C173.074 10.0303 173.4 10.1013 173.713 10.196V16.8864C173.325 16.7538 172.846 16.6544 172.278 16.5881C171.71 16.5218 171.222 16.4886 170.815 16.4886C170.048 16.4886 169.357 16.6638 168.741 17.0142C168.135 17.3551 167.657 17.8381 167.307 18.4631C166.956 19.0786 166.781 19.803 166.781 20.6364V32H158.94ZM193.427 17.2841H186.211C186.173 16.839 186.017 16.4555 185.742 16.1335C185.468 15.8116 185.113 15.5653 184.677 15.3949C184.251 15.215 183.778 15.125 183.257 15.125C182.584 15.125 182.007 15.2481 181.524 15.4943C181.041 15.7405 180.804 16.0909 180.813 16.5455C180.804 16.8674 180.941 17.1657 181.225 17.4403C181.519 17.715 182.082 17.928 182.916 18.0795L187.348 18.875C189.582 19.2822 191.244 19.9687 192.333 20.9347C193.432 21.8911 193.986 23.1742 193.995 24.7841C193.986 26.3371 193.522 27.6866 192.603 28.8324C191.694 29.9687 190.449 30.8494 188.867 31.4744C187.296 32.09 185.501 32.3977 183.484 32.3977C180.151 32.3977 177.542 31.7159 175.657 30.3523C173.782 28.9886 172.736 27.1894 172.518 24.9545H180.302C180.406 25.6458 180.747 26.1809 181.325 26.5597C181.912 26.929 182.651 27.1136 183.541 27.1136C184.26 27.1136 184.852 26.9905 185.316 26.7443C185.79 26.4981 186.031 26.1477 186.041 25.6932C186.031 25.2765 185.823 24.9451 185.416 24.6989C185.018 24.4527 184.393 24.2538 183.541 24.1023L179.677 23.4205C177.452 23.0322 175.785 22.2936 174.677 21.2045C173.569 20.1155 173.02 18.714 173.029 17C173.02 15.4848 173.418 14.2017 174.223 13.1506C175.037 12.09 176.197 11.285 177.703 10.7358C179.218 10.1771 181.012 9.89773 183.086 9.89773C186.24 9.89773 188.725 10.5511 190.544 11.858C192.371 13.1648 193.332 14.9735 193.427 17.2841ZM199.255 32V2.90909H207.152V25.6364H218.914V32H199.255ZM219.306 32V2.90909H227.204V25.6364H238.965V32H219.306ZM265.384 13.8182H257.373C257.316 13.1553 257.164 12.554 256.918 12.0142C256.681 11.4744 256.35 11.0104 255.924 10.6222C255.507 10.2244 255.001 9.9214 254.404 9.71307C253.807 9.49526 253.13 9.38636 252.373 9.38636C251.047 9.38636 249.925 9.70833 249.006 10.3523C248.097 10.9962 247.406 11.9195 246.932 13.1222C246.468 14.3248 246.236 15.7689 246.236 17.4545C246.236 19.2348 246.473 20.7263 246.947 21.929C247.43 23.1222 248.126 24.0218 249.035 24.6278C249.944 25.2244 251.038 25.5227 252.316 25.5227C253.045 25.5227 253.698 25.4328 254.276 25.2528C254.854 25.0634 255.356 24.7936 255.782 24.4432C256.208 24.0928 256.554 23.6714 256.819 23.179C257.093 22.6771 257.278 22.1136 257.373 21.4886L265.384 21.5455C265.289 22.7765 264.944 24.0312 264.347 25.3097C263.751 26.5786 262.903 27.7528 261.805 28.8324C260.716 29.9025 259.366 30.7642 257.756 31.4176C256.146 32.071 254.276 32.3977 252.145 32.3977C249.475 32.3977 247.079 31.8248 244.958 30.679C242.846 29.5331 241.175 27.8475 239.944 25.6222C238.722 23.3968 238.111 20.6742 238.111 17.4545C238.111 14.2159 238.736 11.4886 239.986 9.27273C241.236 7.04735 242.922 5.36648 245.043 4.23011C247.164 3.08428 249.532 2.51136 252.145 2.51136C253.983 2.51136 255.673 2.76231 257.216 3.2642C258.76 3.7661 260.114 4.5 261.279 5.46591C262.444 6.42235 263.381 7.60133 264.091 9.00284C264.802 10.4044 265.233 12.0095 265.384 13.8182Z" fill="white"/>
</svg>
